<mxfile host="app.diagrams.net" modified="2023-09-14T06:02:41.151Z" agent="Mozilla/5.0 (Windows NT 10.0; Win64; x64) AppleWebKit/537.36 (KHTML, like Gecko) Chrome/116.0.0.0 Safari/537.36" etag="1uNblf0Ycm1gT0JdSfpI" version="21.7.4" type="github">
  <diagram id="C5RBs43oDa-KdzZeNtuy" name="Page-1">
    <mxGraphModel dx="2336" dy="798" grid="1" gridSize="10" guides="1" tooltips="1" connect="1" arrows="1" fold="1" page="1" pageScale="1" pageWidth="827" pageHeight="1169" math="0" shadow="0">
      <root>
        <mxCell id="WIyWlLk6GJQsqaUBKTNV-0" />
        <mxCell id="WIyWlLk6GJQsqaUBKTNV-1" parent="WIyWlLk6GJQsqaUBKTNV-0" />
        <mxCell id="LGA2SnM9GcxTvFOw2Mxg-0" value="남성 정장 구매&lt;br&gt;프로그램 실행" style="rounded=0;whiteSpace=wrap;html=1;labelBackgroundColor=none;fillColor=#F5AB50;strokeColor=#909090;fontColor=#1A1A1A;" vertex="1" parent="WIyWlLk6GJQsqaUBKTNV-1">
          <mxGeometry x="354" y="40" width="120" height="60" as="geometry" />
        </mxCell>
        <mxCell id="LGA2SnM9GcxTvFOw2Mxg-1" value="" style="endArrow=classic;html=1;rounded=0;labelBackgroundColor=none;strokeColor=#182E3E;fontColor=default;" edge="1" parent="WIyWlLk6GJQsqaUBKTNV-1">
          <mxGeometry width="50" height="50" relative="1" as="geometry">
            <mxPoint x="414" y="110" as="sourcePoint" />
            <mxPoint x="414" y="190" as="targetPoint" />
          </mxGeometry>
        </mxCell>
        <mxCell id="LGA2SnM9GcxTvFOw2Mxg-77" style="edgeStyle=orthogonalEdgeStyle;rounded=0;orthogonalLoop=1;jettySize=auto;html=1;exitX=1;exitY=0.5;exitDx=0;exitDy=0;strokeColor=#182E3E;fontColor=default;labelBackgroundColor=none;" edge="1" parent="WIyWlLk6GJQsqaUBKTNV-1" source="LGA2SnM9GcxTvFOw2Mxg-2">
          <mxGeometry relative="1" as="geometry">
            <mxPoint x="570" y="235.2962962962962" as="targetPoint" />
          </mxGeometry>
        </mxCell>
        <mxCell id="LGA2SnM9GcxTvFOw2Mxg-2" value="계절 선택&lt;br&gt;봄/가을&lt;br&gt;여름&lt;br&gt;겨울" style="rounded=1;whiteSpace=wrap;html=1;labelBackgroundColor=none;fillColor=#F5AB50;strokeColor=#909090;fontColor=#1A1A1A;" vertex="1" parent="WIyWlLk6GJQsqaUBKTNV-1">
          <mxGeometry x="350" y="200" width="124" height="70" as="geometry" />
        </mxCell>
        <mxCell id="LGA2SnM9GcxTvFOw2Mxg-3" value="" style="endArrow=classic;html=1;rounded=0;labelBackgroundColor=none;strokeColor=#182E3E;fontColor=default;" edge="1" parent="WIyWlLk6GJQsqaUBKTNV-1">
          <mxGeometry width="50" height="50" relative="1" as="geometry">
            <mxPoint x="410" y="280" as="sourcePoint" />
            <mxPoint x="410" y="390" as="targetPoint" />
          </mxGeometry>
        </mxCell>
        <mxCell id="LGA2SnM9GcxTvFOw2Mxg-4" value="여름" style="rounded=1;whiteSpace=wrap;html=1;labelBackgroundColor=none;fillColor=#F5AB50;strokeColor=#909090;fontColor=#1A1A1A;" vertex="1" parent="WIyWlLk6GJQsqaUBKTNV-1">
          <mxGeometry x="350" y="400" width="120" height="60" as="geometry" />
        </mxCell>
        <mxCell id="LGA2SnM9GcxTvFOw2Mxg-5" value="" style="endArrow=classic;html=1;rounded=0;labelBackgroundColor=none;strokeColor=#182E3E;fontColor=default;" edge="1" parent="WIyWlLk6GJQsqaUBKTNV-1">
          <mxGeometry width="50" height="50" relative="1" as="geometry">
            <mxPoint x="410" y="320" as="sourcePoint" />
            <mxPoint x="-270" y="390" as="targetPoint" />
            <Array as="points">
              <mxPoint x="-270" y="320" />
            </Array>
          </mxGeometry>
        </mxCell>
        <mxCell id="LGA2SnM9GcxTvFOw2Mxg-6" value="봄/가을" style="rounded=1;whiteSpace=wrap;html=1;labelBackgroundColor=none;fillColor=#F5AB50;strokeColor=#909090;fontColor=#1A1A1A;" vertex="1" parent="WIyWlLk6GJQsqaUBKTNV-1">
          <mxGeometry x="-330" y="400" width="120" height="60" as="geometry" />
        </mxCell>
        <mxCell id="LGA2SnM9GcxTvFOw2Mxg-7" value="" style="endArrow=classic;html=1;rounded=0;labelBackgroundColor=none;strokeColor=#182E3E;fontColor=default;" edge="1" parent="WIyWlLk6GJQsqaUBKTNV-1">
          <mxGeometry width="50" height="50" relative="1" as="geometry">
            <mxPoint x="410" y="320" as="sourcePoint" />
            <mxPoint x="1140" y="390" as="targetPoint" />
            <Array as="points">
              <mxPoint x="1140" y="320" />
            </Array>
          </mxGeometry>
        </mxCell>
        <mxCell id="LGA2SnM9GcxTvFOw2Mxg-8" value="겨울" style="rounded=1;whiteSpace=wrap;html=1;labelBackgroundColor=none;fillColor=#F5AB50;strokeColor=#909090;fontColor=#1A1A1A;" vertex="1" parent="WIyWlLk6GJQsqaUBKTNV-1">
          <mxGeometry x="1080" y="400" width="120" height="60" as="geometry" />
        </mxCell>
        <mxCell id="LGA2SnM9GcxTvFOw2Mxg-11" value="" style="endArrow=classic;html=1;rounded=0;labelBackgroundColor=none;strokeColor=#182E3E;fontColor=default;" edge="1" parent="WIyWlLk6GJQsqaUBKTNV-1">
          <mxGeometry width="50" height="50" relative="1" as="geometry">
            <mxPoint x="-275.5" y="470" as="sourcePoint" />
            <mxPoint x="-275.5" y="560" as="targetPoint" />
          </mxGeometry>
        </mxCell>
        <mxCell id="LGA2SnM9GcxTvFOw2Mxg-12" value="상의&lt;br&gt;or&lt;br&gt;하의&lt;br&gt;or 세트" style="rhombus;whiteSpace=wrap;html=1;labelBackgroundColor=none;fillColor=#F5AB50;strokeColor=#909090;fontColor=#1A1A1A;" vertex="1" parent="WIyWlLk6GJQsqaUBKTNV-1">
          <mxGeometry x="-330" y="570" width="110" height="100" as="geometry" />
        </mxCell>
        <mxCell id="LGA2SnM9GcxTvFOw2Mxg-13" value="상의&lt;br&gt;or&lt;br&gt;하의&lt;br&gt;or 세트" style="rhombus;whiteSpace=wrap;html=1;labelBackgroundColor=none;fillColor=#F5AB50;strokeColor=#909090;fontColor=#1A1A1A;" vertex="1" parent="WIyWlLk6GJQsqaUBKTNV-1">
          <mxGeometry x="360" y="560" width="110" height="100" as="geometry" />
        </mxCell>
        <mxCell id="LGA2SnM9GcxTvFOw2Mxg-14" value="상의&lt;br&gt;or&lt;br&gt;하의&lt;br&gt;or 세트" style="rhombus;whiteSpace=wrap;html=1;labelBackgroundColor=none;fillColor=#F5AB50;strokeColor=#909090;fontColor=#1A1A1A;" vertex="1" parent="WIyWlLk6GJQsqaUBKTNV-1">
          <mxGeometry x="1085" y="560" width="110" height="100" as="geometry" />
        </mxCell>
        <mxCell id="LGA2SnM9GcxTvFOw2Mxg-15" value="" style="endArrow=classic;html=1;rounded=0;labelBackgroundColor=none;strokeColor=#182E3E;fontColor=default;" edge="1" parent="WIyWlLk6GJQsqaUBKTNV-1">
          <mxGeometry width="50" height="50" relative="1" as="geometry">
            <mxPoint x="413" y="470" as="sourcePoint" />
            <mxPoint x="413" y="550" as="targetPoint" />
          </mxGeometry>
        </mxCell>
        <mxCell id="LGA2SnM9GcxTvFOw2Mxg-16" value="" style="endArrow=classic;html=1;rounded=0;labelBackgroundColor=none;strokeColor=#182E3E;fontColor=default;" edge="1" parent="WIyWlLk6GJQsqaUBKTNV-1">
          <mxGeometry width="50" height="50" relative="1" as="geometry">
            <mxPoint x="1139.37" y="470" as="sourcePoint" />
            <mxPoint x="1139.37" y="550" as="targetPoint" />
          </mxGeometry>
        </mxCell>
        <mxCell id="LGA2SnM9GcxTvFOw2Mxg-17" value="" style="endArrow=classic;html=1;rounded=0;labelBackgroundColor=none;strokeColor=#182E3E;fontColor=default;" edge="1" parent="WIyWlLk6GJQsqaUBKTNV-1">
          <mxGeometry width="50" height="50" relative="1" as="geometry">
            <mxPoint x="-340" y="619.5" as="sourcePoint" />
            <mxPoint x="-430" y="619.5" as="targetPoint" />
          </mxGeometry>
        </mxCell>
        <mxCell id="LGA2SnM9GcxTvFOw2Mxg-18" value="" style="endArrow=classic;html=1;rounded=0;labelBackgroundColor=none;strokeColor=#182E3E;fontColor=default;" edge="1" parent="WIyWlLk6GJQsqaUBKTNV-1">
          <mxGeometry width="50" height="50" relative="1" as="geometry">
            <mxPoint x="350" y="609.5" as="sourcePoint" />
            <mxPoint x="260" y="609.5" as="targetPoint" />
          </mxGeometry>
        </mxCell>
        <mxCell id="LGA2SnM9GcxTvFOw2Mxg-19" value="" style="endArrow=classic;html=1;rounded=0;labelBackgroundColor=none;strokeColor=#182E3E;fontColor=default;" edge="1" parent="WIyWlLk6GJQsqaUBKTNV-1">
          <mxGeometry width="50" height="50" relative="1" as="geometry">
            <mxPoint x="1070" y="609.38" as="sourcePoint" />
            <mxPoint x="980" y="609.38" as="targetPoint" />
          </mxGeometry>
        </mxCell>
        <mxCell id="LGA2SnM9GcxTvFOw2Mxg-20" value="상의" style="swimlane;fontStyle=0;childLayout=stackLayout;horizontal=1;startSize=30;horizontalStack=0;resizeParent=1;resizeParentMax=0;resizeLast=0;collapsible=1;marginBottom=0;whiteSpace=wrap;html=1;labelBackgroundColor=none;fillColor=#F5AB50;strokeColor=#909090;fontColor=#1A1A1A;" vertex="1" parent="WIyWlLk6GJQsqaUBKTNV-1">
          <mxGeometry x="-590" y="570" width="140" height="120" as="geometry" />
        </mxCell>
        <mxCell id="LGA2SnM9GcxTvFOw2Mxg-21" value="브랜드 1" style="text;strokeColor=none;fillColor=none;align=left;verticalAlign=middle;spacingLeft=4;spacingRight=4;overflow=hidden;points=[[0,0.5],[1,0.5]];portConstraint=eastwest;rotatable=0;whiteSpace=wrap;html=1;labelBackgroundColor=none;fontColor=#1A1A1A;" vertex="1" parent="LGA2SnM9GcxTvFOw2Mxg-20">
          <mxGeometry y="30" width="140" height="30" as="geometry" />
        </mxCell>
        <mxCell id="LGA2SnM9GcxTvFOw2Mxg-22" value="브랜드 2" style="text;strokeColor=none;fillColor=none;align=left;verticalAlign=middle;spacingLeft=4;spacingRight=4;overflow=hidden;points=[[0,0.5],[1,0.5]];portConstraint=eastwest;rotatable=0;whiteSpace=wrap;html=1;labelBackgroundColor=none;fontColor=#1A1A1A;" vertex="1" parent="LGA2SnM9GcxTvFOw2Mxg-20">
          <mxGeometry y="60" width="140" height="30" as="geometry" />
        </mxCell>
        <mxCell id="LGA2SnM9GcxTvFOw2Mxg-23" value="브랜드 3" style="text;strokeColor=none;fillColor=none;align=left;verticalAlign=middle;spacingLeft=4;spacingRight=4;overflow=hidden;points=[[0,0.5],[1,0.5]];portConstraint=eastwest;rotatable=0;whiteSpace=wrap;html=1;labelBackgroundColor=none;fontColor=#1A1A1A;" vertex="1" parent="LGA2SnM9GcxTvFOw2Mxg-20">
          <mxGeometry y="90" width="140" height="30" as="geometry" />
        </mxCell>
        <mxCell id="LGA2SnM9GcxTvFOw2Mxg-24" value="상의" style="swimlane;fontStyle=0;childLayout=stackLayout;horizontal=1;startSize=30;horizontalStack=0;resizeParent=1;resizeParentMax=0;resizeLast=0;collapsible=1;marginBottom=0;whiteSpace=wrap;html=1;labelBackgroundColor=none;fillColor=#F5AB50;strokeColor=#909090;fontColor=#1A1A1A;" vertex="1" parent="WIyWlLk6GJQsqaUBKTNV-1">
          <mxGeometry x="827" y="570" width="140" height="120" as="geometry" />
        </mxCell>
        <mxCell id="LGA2SnM9GcxTvFOw2Mxg-25" value="브랜드 1" style="text;strokeColor=none;fillColor=none;align=left;verticalAlign=middle;spacingLeft=4;spacingRight=4;overflow=hidden;points=[[0,0.5],[1,0.5]];portConstraint=eastwest;rotatable=0;whiteSpace=wrap;html=1;labelBackgroundColor=none;fontColor=#1A1A1A;" vertex="1" parent="LGA2SnM9GcxTvFOw2Mxg-24">
          <mxGeometry y="30" width="140" height="30" as="geometry" />
        </mxCell>
        <mxCell id="LGA2SnM9GcxTvFOw2Mxg-26" value="브랜드 2" style="text;strokeColor=none;fillColor=none;align=left;verticalAlign=middle;spacingLeft=4;spacingRight=4;overflow=hidden;points=[[0,0.5],[1,0.5]];portConstraint=eastwest;rotatable=0;whiteSpace=wrap;html=1;labelBackgroundColor=none;fontColor=#1A1A1A;" vertex="1" parent="LGA2SnM9GcxTvFOw2Mxg-24">
          <mxGeometry y="60" width="140" height="30" as="geometry" />
        </mxCell>
        <mxCell id="LGA2SnM9GcxTvFOw2Mxg-27" value="브랜드 3" style="text;strokeColor=none;fillColor=none;align=left;verticalAlign=middle;spacingLeft=4;spacingRight=4;overflow=hidden;points=[[0,0.5],[1,0.5]];portConstraint=eastwest;rotatable=0;whiteSpace=wrap;html=1;labelBackgroundColor=none;fontColor=#1A1A1A;" vertex="1" parent="LGA2SnM9GcxTvFOw2Mxg-24">
          <mxGeometry y="90" width="140" height="30" as="geometry" />
        </mxCell>
        <mxCell id="LGA2SnM9GcxTvFOw2Mxg-28" value="상의" style="swimlane;fontStyle=0;childLayout=stackLayout;horizontal=1;startSize=30;horizontalStack=0;resizeParent=1;resizeParentMax=0;resizeLast=0;collapsible=1;marginBottom=0;whiteSpace=wrap;html=1;labelBackgroundColor=none;fillColor=#F5AB50;strokeColor=#909090;fontColor=#1A1A1A;" vertex="1" parent="WIyWlLk6GJQsqaUBKTNV-1">
          <mxGeometry x="110" y="570" width="140" height="120" as="geometry" />
        </mxCell>
        <mxCell id="LGA2SnM9GcxTvFOw2Mxg-29" value="브랜드 1" style="text;strokeColor=none;fillColor=none;align=left;verticalAlign=middle;spacingLeft=4;spacingRight=4;overflow=hidden;points=[[0,0.5],[1,0.5]];portConstraint=eastwest;rotatable=0;whiteSpace=wrap;html=1;labelBackgroundColor=none;fontColor=#1A1A1A;" vertex="1" parent="LGA2SnM9GcxTvFOw2Mxg-28">
          <mxGeometry y="30" width="140" height="30" as="geometry" />
        </mxCell>
        <mxCell id="LGA2SnM9GcxTvFOw2Mxg-30" value="브랜드 2" style="text;strokeColor=none;fillColor=none;align=left;verticalAlign=middle;spacingLeft=4;spacingRight=4;overflow=hidden;points=[[0,0.5],[1,0.5]];portConstraint=eastwest;rotatable=0;whiteSpace=wrap;html=1;labelBackgroundColor=none;fontColor=#1A1A1A;" vertex="1" parent="LGA2SnM9GcxTvFOw2Mxg-28">
          <mxGeometry y="60" width="140" height="30" as="geometry" />
        </mxCell>
        <mxCell id="LGA2SnM9GcxTvFOw2Mxg-31" value="브랜드 3" style="text;strokeColor=none;fillColor=none;align=left;verticalAlign=middle;spacingLeft=4;spacingRight=4;overflow=hidden;points=[[0,0.5],[1,0.5]];portConstraint=eastwest;rotatable=0;whiteSpace=wrap;html=1;labelBackgroundColor=none;fontColor=#1A1A1A;" vertex="1" parent="LGA2SnM9GcxTvFOw2Mxg-28">
          <mxGeometry y="90" width="140" height="30" as="geometry" />
        </mxCell>
        <mxCell id="LGA2SnM9GcxTvFOw2Mxg-33" value="" style="endArrow=classic;html=1;rounded=0;labelBackgroundColor=none;strokeColor=#182E3E;fontColor=default;" edge="1" parent="WIyWlLk6GJQsqaUBKTNV-1">
          <mxGeometry width="50" height="50" relative="1" as="geometry">
            <mxPoint x="-210" y="620" as="sourcePoint" />
            <mxPoint x="-120" y="620" as="targetPoint" />
          </mxGeometry>
        </mxCell>
        <mxCell id="LGA2SnM9GcxTvFOw2Mxg-34" value="하의" style="swimlane;fontStyle=0;childLayout=stackLayout;horizontal=1;startSize=30;horizontalStack=0;resizeParent=1;resizeParentMax=0;resizeLast=0;collapsible=1;marginBottom=0;whiteSpace=wrap;html=1;labelBackgroundColor=none;fillColor=#F5AB50;strokeColor=#909090;fontColor=#1A1A1A;" vertex="1" parent="WIyWlLk6GJQsqaUBKTNV-1">
          <mxGeometry x="-110" y="570" width="140" height="120" as="geometry" />
        </mxCell>
        <mxCell id="LGA2SnM9GcxTvFOw2Mxg-35" value="브랜드 1" style="text;strokeColor=none;fillColor=none;align=left;verticalAlign=middle;spacingLeft=4;spacingRight=4;overflow=hidden;points=[[0,0.5],[1,0.5]];portConstraint=eastwest;rotatable=0;whiteSpace=wrap;html=1;labelBackgroundColor=none;fontColor=#1A1A1A;" vertex="1" parent="LGA2SnM9GcxTvFOw2Mxg-34">
          <mxGeometry y="30" width="140" height="30" as="geometry" />
        </mxCell>
        <mxCell id="LGA2SnM9GcxTvFOw2Mxg-36" value="브랜드 2" style="text;strokeColor=none;fillColor=none;align=left;verticalAlign=middle;spacingLeft=4;spacingRight=4;overflow=hidden;points=[[0,0.5],[1,0.5]];portConstraint=eastwest;rotatable=0;whiteSpace=wrap;html=1;labelBackgroundColor=none;fontColor=#1A1A1A;" vertex="1" parent="LGA2SnM9GcxTvFOw2Mxg-34">
          <mxGeometry y="60" width="140" height="30" as="geometry" />
        </mxCell>
        <mxCell id="LGA2SnM9GcxTvFOw2Mxg-37" value="브랜드 3" style="text;strokeColor=none;fillColor=none;align=left;verticalAlign=middle;spacingLeft=4;spacingRight=4;overflow=hidden;points=[[0,0.5],[1,0.5]];portConstraint=eastwest;rotatable=0;whiteSpace=wrap;html=1;labelBackgroundColor=none;fontColor=#1A1A1A;" vertex="1" parent="LGA2SnM9GcxTvFOw2Mxg-34">
          <mxGeometry y="90" width="140" height="30" as="geometry" />
        </mxCell>
        <mxCell id="LGA2SnM9GcxTvFOw2Mxg-38" value="하의" style="swimlane;fontStyle=0;childLayout=stackLayout;horizontal=1;startSize=30;horizontalStack=0;resizeParent=1;resizeParentMax=0;resizeLast=0;collapsible=1;marginBottom=0;whiteSpace=wrap;html=1;labelBackgroundColor=none;fillColor=#F5AB50;strokeColor=#909090;fontColor=#1A1A1A;" vertex="1" parent="WIyWlLk6GJQsqaUBKTNV-1">
          <mxGeometry x="1300" y="570" width="140" height="120" as="geometry" />
        </mxCell>
        <mxCell id="LGA2SnM9GcxTvFOw2Mxg-39" value="브랜드 1" style="text;strokeColor=none;fillColor=none;align=left;verticalAlign=middle;spacingLeft=4;spacingRight=4;overflow=hidden;points=[[0,0.5],[1,0.5]];portConstraint=eastwest;rotatable=0;whiteSpace=wrap;html=1;labelBackgroundColor=none;fontColor=#1A1A1A;" vertex="1" parent="LGA2SnM9GcxTvFOw2Mxg-38">
          <mxGeometry y="30" width="140" height="30" as="geometry" />
        </mxCell>
        <mxCell id="LGA2SnM9GcxTvFOw2Mxg-40" value="브랜드 2" style="text;strokeColor=none;fillColor=none;align=left;verticalAlign=middle;spacingLeft=4;spacingRight=4;overflow=hidden;points=[[0,0.5],[1,0.5]];portConstraint=eastwest;rotatable=0;whiteSpace=wrap;html=1;labelBackgroundColor=none;fontColor=#1A1A1A;" vertex="1" parent="LGA2SnM9GcxTvFOw2Mxg-38">
          <mxGeometry y="60" width="140" height="30" as="geometry" />
        </mxCell>
        <mxCell id="LGA2SnM9GcxTvFOw2Mxg-41" value="브랜드 3" style="text;strokeColor=none;fillColor=none;align=left;verticalAlign=middle;spacingLeft=4;spacingRight=4;overflow=hidden;points=[[0,0.5],[1,0.5]];portConstraint=eastwest;rotatable=0;whiteSpace=wrap;html=1;labelBackgroundColor=none;fontColor=#1A1A1A;" vertex="1" parent="LGA2SnM9GcxTvFOw2Mxg-38">
          <mxGeometry y="90" width="140" height="30" as="geometry" />
        </mxCell>
        <mxCell id="LGA2SnM9GcxTvFOw2Mxg-42" value="하의" style="swimlane;fontStyle=0;childLayout=stackLayout;horizontal=1;startSize=30;horizontalStack=0;resizeParent=1;resizeParentMax=0;resizeLast=0;collapsible=1;marginBottom=0;whiteSpace=wrap;html=1;labelBackgroundColor=none;fillColor=#F5AB50;strokeColor=#909090;fontColor=#1A1A1A;" vertex="1" parent="WIyWlLk6GJQsqaUBKTNV-1">
          <mxGeometry x="570" y="570" width="140" height="120" as="geometry" />
        </mxCell>
        <mxCell id="LGA2SnM9GcxTvFOw2Mxg-43" value="브랜드 1" style="text;strokeColor=none;fillColor=none;align=left;verticalAlign=middle;spacingLeft=4;spacingRight=4;overflow=hidden;points=[[0,0.5],[1,0.5]];portConstraint=eastwest;rotatable=0;whiteSpace=wrap;html=1;labelBackgroundColor=none;fontColor=#1A1A1A;" vertex="1" parent="LGA2SnM9GcxTvFOw2Mxg-42">
          <mxGeometry y="30" width="140" height="30" as="geometry" />
        </mxCell>
        <mxCell id="LGA2SnM9GcxTvFOw2Mxg-44" value="브랜드 2" style="text;strokeColor=none;fillColor=none;align=left;verticalAlign=middle;spacingLeft=4;spacingRight=4;overflow=hidden;points=[[0,0.5],[1,0.5]];portConstraint=eastwest;rotatable=0;whiteSpace=wrap;html=1;labelBackgroundColor=none;fontColor=#1A1A1A;" vertex="1" parent="LGA2SnM9GcxTvFOw2Mxg-42">
          <mxGeometry y="60" width="140" height="30" as="geometry" />
        </mxCell>
        <mxCell id="LGA2SnM9GcxTvFOw2Mxg-45" value="브랜드 3" style="text;strokeColor=none;fillColor=none;align=left;verticalAlign=middle;spacingLeft=4;spacingRight=4;overflow=hidden;points=[[0,0.5],[1,0.5]];portConstraint=eastwest;rotatable=0;whiteSpace=wrap;html=1;labelBackgroundColor=none;fontColor=#1A1A1A;" vertex="1" parent="LGA2SnM9GcxTvFOw2Mxg-42">
          <mxGeometry y="90" width="140" height="30" as="geometry" />
        </mxCell>
        <mxCell id="LGA2SnM9GcxTvFOw2Mxg-46" value="" style="endArrow=classic;html=1;rounded=0;labelBackgroundColor=none;strokeColor=#182E3E;fontColor=default;" edge="1" parent="WIyWlLk6GJQsqaUBKTNV-1">
          <mxGeometry width="50" height="50" relative="1" as="geometry">
            <mxPoint x="474" y="609.47" as="sourcePoint" />
            <mxPoint x="564" y="609.47" as="targetPoint" />
          </mxGeometry>
        </mxCell>
        <mxCell id="LGA2SnM9GcxTvFOw2Mxg-47" value="" style="endArrow=classic;html=1;rounded=0;labelBackgroundColor=none;strokeColor=#182E3E;fontColor=default;" edge="1" parent="WIyWlLk6GJQsqaUBKTNV-1">
          <mxGeometry width="50" height="50" relative="1" as="geometry">
            <mxPoint x="1200" y="609.47" as="sourcePoint" />
            <mxPoint x="1290" y="609.47" as="targetPoint" />
          </mxGeometry>
        </mxCell>
        <mxCell id="LGA2SnM9GcxTvFOw2Mxg-48" value="" style="endArrow=classic;html=1;rounded=0;labelBackgroundColor=none;strokeColor=#182E3E;fontColor=default;" edge="1" parent="WIyWlLk6GJQsqaUBKTNV-1">
          <mxGeometry width="50" height="50" relative="1" as="geometry">
            <mxPoint x="-275.43" y="680" as="sourcePoint" />
            <mxPoint x="-275.43" y="750" as="targetPoint" />
          </mxGeometry>
        </mxCell>
        <mxCell id="LGA2SnM9GcxTvFOw2Mxg-49" value="" style="endArrow=classic;html=1;rounded=0;labelBackgroundColor=none;strokeColor=#182E3E;fontColor=default;" edge="1" parent="WIyWlLk6GJQsqaUBKTNV-1">
          <mxGeometry width="50" height="50" relative="1" as="geometry">
            <mxPoint x="1139.57" y="670" as="sourcePoint" />
            <mxPoint x="1139.57" y="740" as="targetPoint" />
          </mxGeometry>
        </mxCell>
        <mxCell id="LGA2SnM9GcxTvFOw2Mxg-50" value="" style="endArrow=classic;html=1;rounded=0;labelBackgroundColor=none;strokeColor=#182E3E;fontColor=default;" edge="1" parent="WIyWlLk6GJQsqaUBKTNV-1">
          <mxGeometry width="50" height="50" relative="1" as="geometry">
            <mxPoint x="414.57" y="670" as="sourcePoint" />
            <mxPoint x="414.57" y="740" as="targetPoint" />
          </mxGeometry>
        </mxCell>
        <mxCell id="LGA2SnM9GcxTvFOw2Mxg-51" value="상하의 세트" style="swimlane;fontStyle=0;childLayout=stackLayout;horizontal=1;startSize=30;horizontalStack=0;resizeParent=1;resizeParentMax=0;resizeLast=0;collapsible=1;marginBottom=0;whiteSpace=wrap;html=1;labelBackgroundColor=none;fillColor=#F5AB50;strokeColor=#909090;fontColor=#1A1A1A;" vertex="1" parent="WIyWlLk6GJQsqaUBKTNV-1">
          <mxGeometry x="-345" y="770" width="140" height="120" as="geometry" />
        </mxCell>
        <mxCell id="LGA2SnM9GcxTvFOw2Mxg-52" value="브랜드 1" style="text;strokeColor=none;fillColor=none;align=left;verticalAlign=middle;spacingLeft=4;spacingRight=4;overflow=hidden;points=[[0,0.5],[1,0.5]];portConstraint=eastwest;rotatable=0;whiteSpace=wrap;html=1;labelBackgroundColor=none;fontColor=#1A1A1A;" vertex="1" parent="LGA2SnM9GcxTvFOw2Mxg-51">
          <mxGeometry y="30" width="140" height="30" as="geometry" />
        </mxCell>
        <mxCell id="LGA2SnM9GcxTvFOw2Mxg-53" value="브랜드 2" style="text;strokeColor=none;fillColor=none;align=left;verticalAlign=middle;spacingLeft=4;spacingRight=4;overflow=hidden;points=[[0,0.5],[1,0.5]];portConstraint=eastwest;rotatable=0;whiteSpace=wrap;html=1;labelBackgroundColor=none;fontColor=#1A1A1A;" vertex="1" parent="LGA2SnM9GcxTvFOw2Mxg-51">
          <mxGeometry y="60" width="140" height="30" as="geometry" />
        </mxCell>
        <mxCell id="LGA2SnM9GcxTvFOw2Mxg-54" value="브랜드 3" style="text;strokeColor=none;fillColor=none;align=left;verticalAlign=middle;spacingLeft=4;spacingRight=4;overflow=hidden;points=[[0,0.5],[1,0.5]];portConstraint=eastwest;rotatable=0;whiteSpace=wrap;html=1;labelBackgroundColor=none;fontColor=#1A1A1A;" vertex="1" parent="LGA2SnM9GcxTvFOw2Mxg-51">
          <mxGeometry y="90" width="140" height="30" as="geometry" />
        </mxCell>
        <mxCell id="LGA2SnM9GcxTvFOw2Mxg-55" value="상하의 세트" style="swimlane;fontStyle=0;childLayout=stackLayout;horizontal=1;startSize=30;horizontalStack=0;resizeParent=1;resizeParentMax=0;resizeLast=0;collapsible=1;marginBottom=0;whiteSpace=wrap;html=1;labelBackgroundColor=none;fillColor=#F5AB50;strokeColor=#909090;fontColor=#1A1A1A;" vertex="1" parent="WIyWlLk6GJQsqaUBKTNV-1">
          <mxGeometry x="1070" y="750" width="140" height="120" as="geometry" />
        </mxCell>
        <mxCell id="LGA2SnM9GcxTvFOw2Mxg-56" value="브랜드 1" style="text;strokeColor=none;fillColor=none;align=left;verticalAlign=middle;spacingLeft=4;spacingRight=4;overflow=hidden;points=[[0,0.5],[1,0.5]];portConstraint=eastwest;rotatable=0;whiteSpace=wrap;html=1;labelBackgroundColor=none;fontColor=#1A1A1A;" vertex="1" parent="LGA2SnM9GcxTvFOw2Mxg-55">
          <mxGeometry y="30" width="140" height="30" as="geometry" />
        </mxCell>
        <mxCell id="LGA2SnM9GcxTvFOw2Mxg-57" value="브랜드 2" style="text;strokeColor=none;fillColor=none;align=left;verticalAlign=middle;spacingLeft=4;spacingRight=4;overflow=hidden;points=[[0,0.5],[1,0.5]];portConstraint=eastwest;rotatable=0;whiteSpace=wrap;html=1;labelBackgroundColor=none;fontColor=#1A1A1A;" vertex="1" parent="LGA2SnM9GcxTvFOw2Mxg-55">
          <mxGeometry y="60" width="140" height="30" as="geometry" />
        </mxCell>
        <mxCell id="LGA2SnM9GcxTvFOw2Mxg-58" value="브랜드 3" style="text;strokeColor=none;fillColor=none;align=left;verticalAlign=middle;spacingLeft=4;spacingRight=4;overflow=hidden;points=[[0,0.5],[1,0.5]];portConstraint=eastwest;rotatable=0;whiteSpace=wrap;html=1;labelBackgroundColor=none;fontColor=#1A1A1A;" vertex="1" parent="LGA2SnM9GcxTvFOw2Mxg-55">
          <mxGeometry y="90" width="140" height="30" as="geometry" />
        </mxCell>
        <mxCell id="LGA2SnM9GcxTvFOw2Mxg-59" value="상하의 세트" style="swimlane;fontStyle=0;childLayout=stackLayout;horizontal=1;startSize=30;horizontalStack=0;resizeParent=1;resizeParentMax=0;resizeLast=0;collapsible=1;marginBottom=0;whiteSpace=wrap;html=1;labelBackgroundColor=none;fillColor=#F5AB50;strokeColor=#909090;fontColor=#1A1A1A;" vertex="1" parent="WIyWlLk6GJQsqaUBKTNV-1">
          <mxGeometry x="345" y="760" width="140" height="120" as="geometry" />
        </mxCell>
        <mxCell id="LGA2SnM9GcxTvFOw2Mxg-60" value="브랜드 1" style="text;strokeColor=none;fillColor=none;align=left;verticalAlign=middle;spacingLeft=4;spacingRight=4;overflow=hidden;points=[[0,0.5],[1,0.5]];portConstraint=eastwest;rotatable=0;whiteSpace=wrap;html=1;labelBackgroundColor=none;fontColor=#1A1A1A;" vertex="1" parent="LGA2SnM9GcxTvFOw2Mxg-59">
          <mxGeometry y="30" width="140" height="30" as="geometry" />
        </mxCell>
        <mxCell id="LGA2SnM9GcxTvFOw2Mxg-61" value="브랜드 2" style="text;strokeColor=none;fillColor=none;align=left;verticalAlign=middle;spacingLeft=4;spacingRight=4;overflow=hidden;points=[[0,0.5],[1,0.5]];portConstraint=eastwest;rotatable=0;whiteSpace=wrap;html=1;labelBackgroundColor=none;fontColor=#1A1A1A;" vertex="1" parent="LGA2SnM9GcxTvFOw2Mxg-59">
          <mxGeometry y="60" width="140" height="30" as="geometry" />
        </mxCell>
        <mxCell id="LGA2SnM9GcxTvFOw2Mxg-62" value="브랜드 3" style="text;strokeColor=none;fillColor=none;align=left;verticalAlign=middle;spacingLeft=4;spacingRight=4;overflow=hidden;points=[[0,0.5],[1,0.5]];portConstraint=eastwest;rotatable=0;whiteSpace=wrap;html=1;labelBackgroundColor=none;fontColor=#1A1A1A;" vertex="1" parent="LGA2SnM9GcxTvFOw2Mxg-59">
          <mxGeometry y="90" width="140" height="30" as="geometry" />
        </mxCell>
        <mxCell id="LGA2SnM9GcxTvFOw2Mxg-63" value="" style="shape=flexArrow;endArrow=classic;html=1;rounded=0;strokeColor=#182E3E;fontColor=default;labelBackgroundColor=none;" edge="1" parent="WIyWlLk6GJQsqaUBKTNV-1">
          <mxGeometry width="50" height="50" relative="1" as="geometry">
            <mxPoint x="-275.53" y="900" as="sourcePoint" />
            <mxPoint x="-275.53" y="1000" as="targetPoint" />
            <Array as="points" />
          </mxGeometry>
        </mxCell>
        <mxCell id="LGA2SnM9GcxTvFOw2Mxg-64" value="" style="shape=flexArrow;endArrow=classic;html=1;rounded=0;strokeColor=#182E3E;fontColor=default;labelBackgroundColor=none;" edge="1" parent="WIyWlLk6GJQsqaUBKTNV-1">
          <mxGeometry width="50" height="50" relative="1" as="geometry">
            <mxPoint x="1139.47" y="890" as="sourcePoint" />
            <mxPoint x="1139.47" y="990" as="targetPoint" />
            <Array as="points" />
          </mxGeometry>
        </mxCell>
        <mxCell id="LGA2SnM9GcxTvFOw2Mxg-65" value="" style="shape=flexArrow;endArrow=classic;html=1;rounded=0;strokeColor=#182E3E;fontColor=default;labelBackgroundColor=none;" edge="1" parent="WIyWlLk6GJQsqaUBKTNV-1">
          <mxGeometry width="50" height="50" relative="1" as="geometry">
            <mxPoint x="414.47" y="890" as="sourcePoint" />
            <mxPoint x="414.47" y="990" as="targetPoint" />
            <Array as="points" />
          </mxGeometry>
        </mxCell>
        <mxCell id="LGA2SnM9GcxTvFOw2Mxg-68" value="구매 목록, 총액 출력" style="rounded=1;whiteSpace=wrap;html=1;strokeColor=#909090;fontColor=#1A1A1A;fillColor=#F5AB50;labelBackgroundColor=none;" vertex="1" parent="WIyWlLk6GJQsqaUBKTNV-1">
          <mxGeometry x="-335" y="1010" width="120" height="60" as="geometry" />
        </mxCell>
        <mxCell id="LGA2SnM9GcxTvFOw2Mxg-69" value="구매 목록, 총액 출력" style="rounded=1;whiteSpace=wrap;html=1;strokeColor=#909090;fontColor=#1A1A1A;fillColor=#F5AB50;labelBackgroundColor=none;" vertex="1" parent="WIyWlLk6GJQsqaUBKTNV-1">
          <mxGeometry x="1080" y="1000" width="120" height="60" as="geometry" />
        </mxCell>
        <mxCell id="LGA2SnM9GcxTvFOw2Mxg-70" value="구매 목록, 총액 출력" style="rounded=1;whiteSpace=wrap;html=1;strokeColor=#909090;fontColor=#1A1A1A;fillColor=#F5AB50;labelBackgroundColor=none;" vertex="1" parent="WIyWlLk6GJQsqaUBKTNV-1">
          <mxGeometry x="355" y="1000" width="120" height="60" as="geometry" />
        </mxCell>
        <mxCell id="LGA2SnM9GcxTvFOw2Mxg-71" value="" style="endArrow=classic;html=1;rounded=0;strokeColor=#182E3E;fontColor=default;labelBackgroundColor=none;" edge="1" parent="WIyWlLk6GJQsqaUBKTNV-1">
          <mxGeometry width="50" height="50" relative="1" as="geometry">
            <mxPoint x="-280" y="1080" as="sourcePoint" />
            <mxPoint x="-280" y="1140" as="targetPoint" />
          </mxGeometry>
        </mxCell>
        <mxCell id="LGA2SnM9GcxTvFOw2Mxg-72" value="입금완료되었습니다.&lt;br&gt;출력" style="rounded=1;whiteSpace=wrap;html=1;strokeColor=#909090;fontColor=#1A1A1A;fillColor=#F5AB50;labelBackgroundColor=none;" vertex="1" parent="WIyWlLk6GJQsqaUBKTNV-1">
          <mxGeometry x="-340" y="1150" width="120" height="60" as="geometry" />
        </mxCell>
        <mxCell id="LGA2SnM9GcxTvFOw2Mxg-73" value="입금완료되었습니다.&lt;br&gt;출력" style="rounded=1;whiteSpace=wrap;html=1;strokeColor=#909090;fontColor=#1A1A1A;fillColor=#F5AB50;labelBackgroundColor=none;" vertex="1" parent="WIyWlLk6GJQsqaUBKTNV-1">
          <mxGeometry x="1080" y="1140" width="120" height="60" as="geometry" />
        </mxCell>
        <mxCell id="LGA2SnM9GcxTvFOw2Mxg-74" value="입금완료되었습니다.&lt;br&gt;출력" style="rounded=1;whiteSpace=wrap;html=1;strokeColor=#909090;fontColor=#1A1A1A;fillColor=#F5AB50;labelBackgroundColor=none;" vertex="1" parent="WIyWlLk6GJQsqaUBKTNV-1">
          <mxGeometry x="355" y="1140" width="120" height="60" as="geometry" />
        </mxCell>
        <mxCell id="LGA2SnM9GcxTvFOw2Mxg-75" value="" style="endArrow=classic;html=1;rounded=0;strokeColor=#182E3E;fontColor=default;labelBackgroundColor=none;" edge="1" parent="WIyWlLk6GJQsqaUBKTNV-1">
          <mxGeometry width="50" height="50" relative="1" as="geometry">
            <mxPoint x="414.57000000000005" y="1070" as="sourcePoint" />
            <mxPoint x="414.57000000000005" y="1130" as="targetPoint" />
          </mxGeometry>
        </mxCell>
        <mxCell id="LGA2SnM9GcxTvFOw2Mxg-76" value="" style="endArrow=classic;html=1;rounded=0;strokeColor=#182E3E;fontColor=default;labelBackgroundColor=none;" edge="1" parent="WIyWlLk6GJQsqaUBKTNV-1">
          <mxGeometry width="50" height="50" relative="1" as="geometry">
            <mxPoint x="1139.57" y="1070" as="sourcePoint" />
            <mxPoint x="1139.57" y="1130" as="targetPoint" />
          </mxGeometry>
        </mxCell>
        <mxCell id="LGA2SnM9GcxTvFOw2Mxg-78" value="안산다면&lt;br&gt;탈출!" style="rounded=1;whiteSpace=wrap;html=1;strokeColor=#909090;fontColor=#1A1A1A;fillColor=#F5AB50;labelBackgroundColor=none;" vertex="1" parent="WIyWlLk6GJQsqaUBKTNV-1">
          <mxGeometry x="580" y="205" width="120" height="60" as="geometry" />
        </mxCell>
      </root>
    </mxGraphModel>
  </diagram>
</mxfile>
